@startuml 

class MapGUI { 
renderPlayerMap()
renderOponentMap()
renderMonster() 
renderSpell() 
renderTower()
} 

class Map {
isOponentMap: bool
mapData: int [][]
creatureList: Creature []
towerList: Tower []
getCreatureList()
getTowerList()
}

class PlayGUI { 
renderDeck()
}
  

class GamePlayManager { 

mapGUI: MapGUI 
playerMap: Map
oponentMap: Map
cardDeck: BattleCardList
  
generateMap() 
addMapData()
spawnMonster() 
addAndCheckSpell()
addOnPlaceCardEvent()
updateMonster() 
updateTower() 
onPlaceCard() 
checkSpellEffect() 
} 

GamePlayManager -- MapGUI: have 
GamePlayManager -- PlayGUI: have
GamePlayManager -- BattleCardList: have
GamePlayManager -- Tower: have
GamePlayManager -- Creature: have
GamePlayManager -- Map: have
GamePlayManager -- Network
  

class Lobby { 
cardManager: CardManager 
battleScreen: Inventory 
shop: Shop 
render() 
} 


class BattleScreen { 

chessBox: ChestBox 

onGetUserInfo()
onGetUserChestBoxInfo()
render() 
renderUserInfo()
renderUserChestBoxInfo()
onStartFindingMatch() 
  
} 

  

Lobby--Inventory: have 

Lobby--BattleScreen: have 

Lobby--Shop: have 

BattleScreen--ChestBox: have

Lobby- FindMatchView 

  
class Spell { 

time: int
attribute: SpellAttribute

{static} create() 

render() 

checkTarget() 

effectTarget() 

} 

  

class FireBall { 

render() 

effectTarget() 

} 

  

class Heal { 

render() 

effectTarget() 

} 

  

class Strength { 

render() 

effectTarget() 

} 

  

class SpeedUp { 

render() 

effectTarget() 

} 

  

class Frozen { 

render() 

effectTarget() 

} 

  

class Trap { 

render() 

effectTarget() 

} 

class EffectZone { 

effectType: int

effectValue: float  

effectTime: float  

existTime: float  

damageIncrease: float  

speedIncrease: float

' FindTargetTower() 

' FindTargetMonsters() 

' BuffEffectTower() 

' DoEffectMonster() 

} 

Spell<|--Heal 

Spell<|--SpeedUp 

Spell<|--Frozen 

Spell<|--Trap 

Spell<|--Strength 

Spell<|--FireBall 

Heal -- EffectZone
SpeedUp -- EffectZone
Frozen -- EffectZone
Strength -- EffectZone
FireBall -- EffectZone

Spell - SpellAttribute: have 

LoginView - Lobby 
 
GamePlayManager--Creature 

GamePlayManager--Tower 

GamePlayManager--Spell 

 

 

class PlayerInfo{
    id: int
    name: string
    Ava: img
    credit: int
    gold: Gold
    g: G
    ==
    void getter()
    void setter()
}

  

class Attribute{ 

} 

  

class TowerAttribute{ 

    name: string 

    type: int 

    impactIndex: float 

    distance: float 

    buildingTime: timespan 

} 

  

  

class SpellAttribute { 

    type: int 

    effectType: int

    impactIndex: float  

    effectRange: float 

    effectTime: float  

    existTime: float  

    damageIncrease: float  

    speedIncrease: float  

    triggerTime: float  

} 

class CreatureAttribute{ 
    name: string 

    type: int    

    maxHp: int  

    baseSpeed: float  

    gainingEnergy: int  

    damage: int 

    size: float 

    weight: int 

} 

class MonsterAttribute{ 

    consumingEnergy: int  

    baseAmount: int 

    damage: 1 

} 

  

class BossAttribute {  

    damage: 5  

} 

class MinionAttribute {  

    damage: 1  

} 
  

class Card{
    name: string
    id: int
    requiredEnergy: int
    level: int
    avt: string
    attribute: Attribute
    size: int
    evolutionaryLv: int
    description: string
    ==
    void showGUI()
    void closeGUI()
    void levelUp()
    int checklevelUp()
    void showEvolution()
    void showInfo()
    void closeInfo()
}

  

class TowerCard{
    ability: Ability
    ==
    void showAbility()
    bool checkAbility()
}

  

class MonsterCard{

}

class SpellCard{

}

  

class Ability{
    icon: string
    ==
    void showGUI()
    void closeGUI()
}

class CardList{
    cards: Card[]
    name: string
    ==
    void sort(int)
    Card getCard()
    void removeCard()
    void insertCard(int)
    int size()
    void showGUI()
    void closeGUI()
}

  

class BattleCardList{
    cards: Card[8]
}

  

class Inventory{
    battlecards: BattleCardList
    savecards: CardList
    ==
    void showGUI()
    void closeGUI()
    void levelup()
    void checklvup()
    void selectaCard(int id)
    void startswapcard()
    void swapCard(int id, int id)
} 

  

Attribute <|-- TowerAttribute 

Attribute  <|--  SpellAttribute 

Attribute  <|-- CreatureAttribute 

CreatureAttribute <|-- MonsterAttribute 

CreatureAttribute <|-- MinionAttribute 

CreatureAttribute <|--  BossAttribute 
  

Card "1" -- "1" Attribute
Card <|-- SpellCard 
Card <|-- MonsterCard
Card <|-- TowerCard

CardList <|-- BattleCardList

CardList "1" -- "1.." Card
Inventory "1" -- "1.." CardList

TowerCard "1" -- "1" Ability

  

  

  

class Chest{
    name: string
    icon: string
    state: int
    time: time
    minGold: Gold
    maxGold: Gold
    openPrice: Currency
    cards: Card[]
    cardtype: int[]
    ==
    void open()
    void showGUI()
    void closeGUI()
    void showInfo()
    void closeInfo()
    void checkG()
    void unlock()
    void unlocknow()
    void showReceive(Currency, Card[])
    void closeReceive()
    void showCountdown()
}

  

class ChestBox{
    chests: Chest[4]
    ==
    void openChest(int)
    int checkFull()
    bool addChest(mingold, maxgold, cards[])
    void showFullDialog()
    void closeFullDialog()
    void removeChest(chestPos)
}

  

ChestBox "1" -- "4" Chest

  

class Currency{
    amount: int
    icon: string
    ==
    int add(Currency)
    int minus(Currency)
}

class Gold{}

class G{}

class ShopItem{
    objects: Object
    price: Currency
    ==
    void setter()
    void getter()
    void showInfo()
    void closeInfo()
    bool checkBuy()
    Object buy()
    void showGUI()
    void closeGUI() 
    void showReceive()
    void closeReceive()
}

  

class OnceShopItem{
    state: bool
}


class ShopItemList{
    items: ShopItem[]
    name: string
    ==
    void ShowGUI()
    void closeGUI()
}

class TimedShopItemList{
    renewTime: time
    ==
    void renew()
}

class Shop{
    list: ShopItemList[]
    ==
    void showGUI()
    void closeGUI()
}

  

Currency <|-- Gold
Currency <|-- G

ShopItem <|-- OnceShopItem

ShopItem "1" -- "1" Currency

ShopItemList <|-- TimedShopItemList

ShopItem "1.." -- "1" ShopItemList

Shop "1" -- "1.." ShopItemList




class Login{
    id: string
    ==
    void callLogin()
}


class sPlayerInfo{
    id: int
    pw: char[60]
    name: char[15]
    Ava: img
    credit: int
    login_time: time
    logout_time: time
    gold: Gold
    g: G
    ==
    void getter()
    void setter()
}

class sAttribute{
    type: int
}

class sTowerAttribute{
    type: int
    damage: int
    speed: int
    distance: int
    shotType: int
    target: int
    buildingTime: timespan
}


class sSpellAttribute {
    type: int
    effectNumber: float 
    effectTime: int 
    existTime: int 
    damageIncrease: float 
    speedIncrease: float 
    startTime: int 
}

class sMonsterAttribute{
    type: int   
    maxHp: int 
    speed: float 
    gainingEnergy: int  
    damage: int 
    size: float 
    weight: int 
    summoner: int 
    consumingEnergy: int  
    baseAmount: int 
    damage: int
    dodgeRate: float 
}

class sBossAttribute { 
    type: int 
    maxHp: int 
    speed: float 
    gainingEnergy: int  
    damage: int 
    size: float 
    weight: int 
}

class sAbility{
    icon: string
    type: int
}

class sCard{
    name: string
    id: int
    requiredEnergy: int
    level: int
    avt: string
    attribute: sAttribute
    size: int
    evolutionaryLv: int
    description: string
    ==
    void levelUp()
    bool checklvup()
}

class sCardList{
    cards: Card[]
    name: string
    ==
    void sort(int)
    void removeCard()
    void insertCard(int type)
}

class sBattleCardList{
    cards: Card[8]
}

class sInventory{
    battlecards: BattleCardList
    savecards: CardList
    ==
    void swapCard(int id, int id);
    void addCard(int id);
    void levelupCard(int id);
}

sAttribute <|-- sTowerAttribute
sAttribute <|-- sMonsterAttribute
sAttribute <|-- sSpellAttribute
sAbility <|-- sBossAttribute

sCard <|-- sTowerCard
sCard <|-- sMonsterCard
sCard <|-- sSpellCard

sCardList -- sCard
sCardList <|-- sBattleCardList
sInventory -- sCardList

sCard -- sAttribute

sTowerCard -- sAbility





class sChestBox{
    chests: Chest[4]
    ==
    void openChest(int)
    int checkFull()
    bool addChest(mingold, maxgold, cards[])
    void removeChest(chestPos)
}


class sChest{
    name: string
    icon: string
    state: int
    time: time
    minGold: Gold
    maxGold: Gold
    minCard: int
    openPrice: Currency
    cards: Card[]
    cardtype: int[]
    ==
    pair<Gold, Card[]> open()
    void unlock()
    void unlocknow()
    bool checkG()
    void checkTime()
}



sChestBox "1" -- "4" sChest









class sCurrency{
    amount: int
    icon: string
    ==
    int add(sCurrency)
    int minus(sCurrency)
}

class sGold{}

class sG{}

class sShopItem{
    objects: Object
    price: sCurrency
    ==
    bool checkBuy()
    void buy()
}

class sOnceShopItem{
    state: bool
}


class sShopItemList{
    items: ShopItem[]
    name: string
}

class sTimedShopItemList{
    renewTime: time
    ==
    void checkrenew()
    void renew()
}

class sShop{
    list: ShopItemList[]
    ==
    void checkrenewTime()
}

sCurrency <|-- sGold
sCurrency <|-- sG

sShopItem -- sCurrency

sShopItem <|-- sOnceShopItem

sShopItemList -- sShopItem

sTimedShopItemList --|> sShopItemList

sShop -- sShopItemList



 

class Creature{ 

id: int 

isActive: bool 

target: int 

position: Point 

hp: int 

speed: float 

== 

AttackBase() 

moveOn() 

moveTo() 

GetHit() 

GetEffect() 

GetKilled() 

Generate() 

GetBuff() 

} 

  

  

class Monster{ 

attribute: MonsterAttribute

summoner: int 

dodgeRate: float 

isBallonMonster: bool 

} 

  

interface I_BalloonMonster{ 

isBalloonMonster: true 

balloonCountDown: timespan 

gesture: string 

== 

GetBalloonBuff() 

} 

  

interface I_InfantryCreature{ 

isFlyer: false 

== 

FindPath() 

Collide() 

} 

  

class InfantryMonster{ 

} 

  

class FlyingMonster{ 

isFlyer: true 

} 

  

class Swordsman{ 

type: 1 

} 

class Assassin{ 

type: 2 

} 

class Giant{ 

type: 3 

} 

class Ninja{ 

type: 4 

== 

Burrow() 

} 

class Bat{ 

type: 5 

} 

  

  

class Minion{ 

attribute: MinionAttribute

} 

  

class Boss{ 

attribute: BossAttribute

== 

MoveEffect() 

} 

  

class InfantryBoss{ 

} 

  

class DarkGiant{ 

type: 1 

} 

class Satyr{ 

type: 2 

} 

class DesertKing{ 

type: 3 

} 

class Iceman{ 

type: 4 

} 

class Golem{ 

type: 5 

} 

class DemonTree{ 

type: 6 

} 

  

Creature <|-- Monster 

Creature <|-- Minion 

Creature <|--  Boss 

  

Monster <|-- InfantryMonster 

Monster <|-- FlyingMonster 

  

InfantryMonster <|-- Swordsman 

InfantryMonster <|-- Assassin 

InfantryMonster <|--  Giant 

InfantryMonster <|--  Ninja 

  

FlyingMonster <|-- Bat 

  

Boss <|-- InfantryBoss 

  

InfantryBoss  <|-- DarkGiant 

InfantryBoss  <|-- Satyr 

InfantryBoss  <|-- DesertKing 

InfantryBoss  <|-- Iceman 

InfantryBoss  <|-- Golem 

InfantryBoss  <|-- DemonTree 

  

I_BalloonMonster <|.. Monster 

  

I_InfantryCreature <|.. InfantryMonster 

I_InfantryCreature <|.. InfantryBoss 

I_InfantryCreature <|.. Minion 

 

 

class Tower { 

id: int 

isActive: bool 

summoner: int 

position: Point 

evolutedLevel: int 

attribute: TowerAttribute

Build() 

Destroy() 

GetEffect() 

GetBuff() 

Upgrade() 

checkUpgradeCondition()

} 

  

class AttackTower { 

towerClass: 1 

targetDeterminingMethod: int 

shootingSpeed: float 

AttackTarget() 

DetermineTarget() 

ChangeTargetDeterminingMethod() 

} 

  

class MagicTower { 

towerClass: 2 

shootingSpeed: float 

MagicalAttack() 

} 

  

class SupportTower { 

towerClass: 3 

ActiveBuffEffectZone() 

} 

  

class Cannon { 

type: 1 

} 

  

class Wizard { 

type: 2 

} 

  

class Boomerang { 

type: 3 

} 

  

class OilGun { 

type: 4 

} 

  

class IceGun { 

type: 5 

} 

  

class AttackSpeed { 

type: 6 

} 

  

class Damage { 

type: 7 

} 

  

class Cannon_Bullet { 

type: 1 

} 

  

class Wizard_Bullet { 

type: 2 

} 

  

class Boomerang_Bullet { 

type: 3 

} 

  

class Oilgun_Bullet { 

type: 4 

} 

  

class Icegun_Bullet { 

type: 5 

} 

  

class AttackSpeed_Zone { 

type: 6 

} 

  

class Damage_Zone { 

type: 7 

} 

  

class Bullet { 

startPos: Point 

desinationPos: Point 

targetType: int 

damageType: int 

targetLockType: int 

effectRange: float 

bulletSpeed: int 

effectType: int 

Shoot() 

Destroy() 

moveToTarget() 

} 

  

class BuffEffectZone { 

targetType: int 

damageType: int 

effectType: int 

' BuffEffectTower() 

' FindTargetTower() 

' FindTargetMonsters() 

' DoEffectMonster() 

} 

  

class ActiveZone { 

centerPoint: Point 

effectRadius: float 

Destroy() 

} 

  

Tower <|-- AttackTower 

Tower <|-- MagicTower 

Tower <|-- SupportTower 

AttackTower <|-- Cannon 

AttackTower <|-- Wizard 

AttackTower <|-- Boomerang 

MagicTower <|-- OilGun 

MagicTower <|-- IceGun 

SupportTower <|-- AttackSpeed 

SupportTower <|-- Damage 

Cannon -- Cannon_Bullet 

Wizard -- Wizard_Bullet 

Boomerang -- Boomerang_Bullet 

OilGun -- Oilgun_Bullet 

IceGun -- Icegun_Bullet 

AttackSpeed -- AttackSpeed_Zone 

Damage -- Damage_Zone 

  

Cannon_Bullet --|> Bullet 

Wizard_Bullet --|> Bullet 

Boomerang_Bullet --|> Bullet 

Oilgun_Bullet --|> Bullet 

Icegun_Bullet --|> Bullet 

AttackSpeed_Zone --|> BuffEffectZone 

Damage_Zone --|> BuffEffectZone 

  

ActiveZone <|-- BuffEffectZone 
ActiveZone <|-- EffectZone 

  

Cannon -- ActiveZone 

Wizard -- ActiveZone 

Boomerang -- ActiveZone 

OilGun -- ActiveZone 

IceGun – ActiveZone 

 

package Client{
    class BattleListManager {
battleList: priorityQueuePool<UserID>
waitTime: Time
playerBattleId: string
findMatchView: FindMatchView
rankConstraint: int
joinBattle(UserID: string): void
onReceiveAcceptPacket(): void
getBattleList(): void
checkBattle(UserID: string): void
increaseRankConstraint(): void
initGamePlayManager()
}

class FindMatchView {
duration: int
view: Scene
showView(): void
onClickFightButton()
onClickLeaveButton()
}
  
class WinMatchView {
  view: Scene
  reward: Reward
  showView(): void
  onClickLeaveButton()
  initView(Reward)
  }
  
class BattleMatchView {
  view: Scene
  showView()
  addOnClickEvent()
  }
  
class AlertView {
  view: Scene
  showView()
  }

    class GameClient{
        _tcpClient: GsnClient
        packetFactory: InPacketFactory
        receivePacketSignal: Signals
        ==
        void ctor()
        GsnClient getNetwork()
        void connect()
        void onFinishConnect()

        void sendPacket(pk)
        getInPacket(cmd, pk)
        Packet getOutPacket(cmd)
        void _onReceived(cmd, pkg)
        void onReceivedPacket(cmd, packet)
        void battle()
    }



    class Packet{
        {static} CMD.HAND_SHAKE: 0
        {static} CMD.USER_LOGIN: 1
        {static} CMD.USER_LOGOUT: 2
        {static} CMD.USER_INFO: 3

        {static} CMD.USER_INFO: 1001
        {static} CMD.MOVE: 2001
    }

    class outPacket{
        ==
        void ctor()
        void reset()
        void putInt(int)
        void putUnsignedShort(short)
        void putShort(short)
        void putString(str)
        void putDouble(double)
        void putBytes(char, int)
        int getData()
        void initData(int)
        int getCmdId()
        void setCmdId(int)
        void pack()

    }

    class CmdSendHandshake{
        ==
    }

    class CmdSendUserInfo{
        ==
    }

    class CmdSendLogin{

    }

    class CmdSendLogout{
        
    }

    class CmdSendUpgradeCard{
        card: int
    }

    class CmdSendSwapCard{
        card1: int
        card2: int
    }

    class CmdSendOpenChest{
        chestOrder: int
    }

    class CmdSendUnclockNowChest{
        chestOrder: int
    }

    class CmdSendBuy{
        itemId: int
    }
    
    class CmdDoneRenewItem{
        done: bool
    }

    class inPacket{
        ==
        void ctor()
        void init()
        int getCmdId()
        char getByte()
        long getLong()
        Bool getBool()
        int getInt()
        string getString()
        short getUnsignedShort()
        short getShort()
        string getCharArray(int)
    }

    class Network{
        gameClient = gameClient()
        packetMap = []
        Packet[CMD.HAND_SHAKE]: inPacket
        Packet[CMD.USER_LOGIN]: inPacket
        Packet[CMD.USER_LOGOUT]: inPacket
        Packet[CMD.USER_INFO]: inPacket

        Packet[CMD.ADD_CARD]: inPacket
        Packet[CMD.SWAP_CARD]: inPacket
        Packet[CMD.UPGRADE_CARD]: inPacket

        Packet[CMD.UPDATE_GOLD]: inPacket
        Packet[CMD.UPDATE_G]: inPacket
        
        Packet[CMD.REMOVE_SHOPITEM]: inPacket
        Packet[CMD.UPDATE_ITEM]: inPacket
        Packet[CMD.ADD_ITEM]: inPacket

        Packet[CMD.OPEN_CHEST]: inPacket

  Packet[CMD.BATTLE_LIST]: inPacket
  Packet[CMD.OFFER_BATTLE]: inPacket
  Packet[CMD.ACCEPT_BATTLE]: inPacket
  Packet[CMD.ROOM_INFO]: inPacket
  Packet[CMD.PLAYER_INFO]: inPacket
  Packet[CMD.BUILD_TOWER]: inPacket
  Packet[CMD.FINISH_TOWER]: inPacket
  Packet[CMD.CAST_SPELL]: inPacket
  Packet[CMD.SPAWN_CREATURE]: inPacket
  Packet[CMD.CHECK_DISCONNECT]: inPacket
  Packet[CMD.WINNER]: inPacket
  Packet[CMD.REWARD]: inPacket
  Packet[CMD.EVENT_NOT_VALID]: inPacket
  
  CmdGetBattleList: outPacket
  CmdGetRoomInfo: outPacket
  CmdBattleRequest: outPacket
  CmdCastSpell: outPacket
  CmdBuildTower: outPacket
  CmdSpawnCreature: outPacket
  CmdCastSpell: outPacket
  CmdCheckWin: outPacket
  CmdCheckLose: outPacket
  CmdIsConnect: outPacket
  
        ==
        void onReceivedPacket(cmd, pk)
        void sendGetUserInfo()
        void sendLogini_()
        void sendLogouti_()
        void SendUpgradeCard()
        void SendSwapCard()
        void SendOpenChest()
        void SendUnclockNowChest()
        void SendBuy()
  void sendGetBattleList()
  void sendBattleRequest()
  void sendGetRoomInfo()
  void sendSpawnCreature()
  void sendCastSpell()
  void sendCheckWin()
  void sendCheckLose()
  void sendConnect()
    }

    Packet <|-- inPacket
    Packet <|-- outPacket

    outPacket <|-- CmdSendHandshake
    outPacket <|-- CmdSendUserInfo
    outPacket <|-- CmdSendLogin
    outPacket <|-- CmdSendLogout
    outPacket <|-- CmdSendUpgradeCard
    outPacket <|-- CmdSendSwapCard
    outPacket <|-- CmdSendOpenChest
    outPacket <|-- CmdSendUnclockNowChest
    outPacket <|-- CmdSendBuy


    Network -- GameClient
    Network -- Packet
    GameClient -- GamePlayManager
BattleListManager *-- FindMatchView
GameClient o- BattleListManager
Network -o GameClient
GamePlayManager -- WinMatchView
GamePlayManager -- AlertView
GamePlayManager -- BattleMatchView
GamePlayManager -- Network

}

package Server{

    class BaseMsg{
        id: int
        error: int
        ==
        void ctor(type, error)
        short getId()
        ByteBuffer makeBuffer()
        byte[] packBuffer()
        void putStr(ByteBuffer, String)
        void putLong(ByteBuffer, long)
        void putIntArray(ByteBuffer, int[])
        ...
        void createData()
        void unpackData()
    }

    class o_UserInfo{
        playerinfo: PlayerInfo
        ==
        void ctor(sPlayerInfo)
        void createData()
    }

    class o_AddCard{
        cardId: int
        amount: int
    }

    class o_SwapCard{
        card1: int
        card2: int
    }

    class o_UpgradeCard{
        cardId: int
    }

    class o_UpdateGold{
        Newamount: int
    }

    class o_UpdateG{
        Newamount: int
    }

    class o_RemoveShopItem{
        itemID: int
    }

    class o_UpdateShopItem{
        itemType: int
        cardIds: int[]
        cardAmount: int[]
        gold: int
        price: int
        pricetype: int
    }

    class o_AddShopItem{
        listId: int
        itemType: int
        cardIds: int[]
        cardAmount: int[]
        gold: int
        price: int
        pricetype: int
    }

    class o_OpenChest{
        chestId: int
    }

    class o_CountDownChest{
        chestId: int
    }

    class o_AcceptBattle {
playerID: int
opponentID:int
}

class o_OfferBattle {
opponentID:int
}
  
class o_ResponseOpponentInfo {
playerInfo: PlayerInfo
  createData()
}
  
  class o_BuildTower {
    tower: sTower
    createData()
  }
  
  class o_FinishTower {
    tower: sTower
    createData()
  }
  
  class o_SpawnCreature {
    creature: sCreature
    createData()
  }
  
  class o_CastSpell {
    spell: sSpell
    createData()
  }
  
  class o_CheckDisconnect {
  }
  
  class o_Winner {
    playerID: int
  }
  
  class o_Reward {
    reward: sReward
  }
  
  class o_RequestBattleList {
    userList: List<UserID>
  }
  
  class o_Map {
    map: sMap
    createData()
  }
  
  class o_EventNotValid {
    alert: bool
  }
  
   o_AcceptBattle --|> BaseMsg
  o_OfferBattle --|> BaseMsg
   o_ResponseOpponentInfo --|> BaseMsg
  o_BuildTower --|> BaseMsg
   o_FinishTower --|> BaseMsg
  o_SpawnCreature --|> BaseMsg
  o_FinishTower --|> BaseMsg
  o_CastSpell --|> BaseMsg
  o_CheckDisconnect --|> BaseMsg
  o_Winner --|> BaseMsg
  o_Reward --|> BaseMsg
  BaseMsg <|-- o_RequestBattleList 
  BaseMsg <|-- o_EventNotValid


    BaseMsg <|-- o_i_UserInfo
    BaseMsg <|-- o_AddCard
    BaseMsg <|-- o_SwapCard
    BaseMsg <|-- o_UpgradeCard
    BaseMsg <|-- o_UpdateG
    BaseMsg <|-- o_UpdateGold
    BaseMsg <|-- o_RemoveShopItem
    BaseMsg <|-- o_UpdateShopItem
    BaseMsg <|-- o_AddShopItem
    BaseMsg <|-- o_OpenChest
    BaseMsg <|-- o_CountDownChest 

    

    class BaseCmd{
        id: int
        ==
        void ctor(byte[])
        int getId()
        string readString()
        byte readByte()
        ...
    }

    class i_Login{
        session: string
        userid: string
    }

    class i_UserInfo{
        userId: int
    }

    class i_UpgradeCard{
        cardId: int
    }

    class i_SwapCard{
        card1: int
        card2: int
    }

    class i_OpenChest{
        chestPos: int
    }

    class i_UnlocknowChest{
        chestPos: int
    }

    class i_Buy{
        itemId: int
    }
    class i_RequestBattle {
  playerID: int
  opponentID: int
  }
  
  class i_RequestBuildTower {
    playerID: int
    roomID: int
    unpackData(): sTower
  }
  
  class i_RequestFinishTower {
    playerID: int
    roomID: int
    unpackData(): sTower
  }
  
  class i_RequestSpawnCreature {
    playerID: int
    roomID: int
    unpackData(): sCreature
  }
  
  class i_RequestCastSpell {
    playerID: int
    roomID: int
    unpackData(): sSpell
  }
  
  class i_CheckWin {
    playerID: int
    roomID: int
    unpackData(): bool
  }
  
  class i_CheckLose {
    playerID: int
    roomID: int
    unpackData(): bool
  }
  
  class i_Connect {
  }
  
  class i_RequestRoomInfo {
  
  }
  
  
  
   i_RequestBattle --|> BaseCmd
    i_RequestBuildTower --|> BaseCmd
    i_RequestFinishTower --|> BaseCmd
    i_RequestSpawnCreature --|> BaseCmd
    i_RequestCastSpell --|> BaseCmd
    i_CheckWin --|> BaseCmd
  i_CheckLose --|> BaseCmd
  i_Connect --|> BaseCmd
  i_RequestRoomInfo --|> BaseCmd

    BaseCmd <|--  i_Login
    BaseCmd <|-- i_UpgradeCard
    BaseCmd <|-- i_SwapCard
    BaseCmd <|-- i_OpenChest
    BaseCmd <|-- i_UnlocknowChest
    BaseCmd <|-- i_Buy




    class UserInfo{
        userid: String
        username: String 
        firstname: String 
        gender: String 
        ...
        ===
        void setter()
        void getter()
    }

    class BZExtension{}

    class Extension{
        battleQueue: BattleRequestHandler
        oomsHandler: RoomsHandler

        ==
        addRequestHandler()
    addEventHandler()
        void doLogin(short cmdId, ISession session, DataCmd objData)
        UserInfo getUserInfo(String username, int userId, String ipAddress)
    }

    class Handler{

    }

    BZExtension <|-- Extension


    class BattleRequestHandler {
battleList: priorityQueue<UserID, WaitTime>
battleMatch: HashMap<UserID, OpponentID>
findPlayersWithRank(numOfPlayer: int, rank: int): int
handleServerEvent()
initRoomHandler()
onReceiveBattleRequest(userID, opponentID)
isBattleAccepted(UserID): bool
startRoom()
sendBattleList(UserID)
}
  
class RoomsHandler {
  roomList: List<Room>
  initRoom(List<UserID>)
  onReceiveGetRoomInfo(UserID): RoomID
  onReceiveEvent(UserID, RoomID, BaseMsg)
  checkRoomTerminateEvent(RoomID)
  initBotRoom(UserID)
}
  
class Room {
  roomID: int
  playerInfoList: HashMap<UserID, sPlayerInfo>
  responseTime: HashMap<UserID, Time>
  isBot: false
  gameplaymanager: sGameplayManager
  initGamePlayManager()
  getRoomID(UserID)
  getOpponentInfo(UserID, RoomID): sPlayerInfo
  getPacketForEvent(cmdID): packet
  sendPacketForEvent(cmdID, UserID) 
  createPlayerEvent()
  forwardPacket(packet, UserID)
  createPacket(cmdID, packet)
  checkDisconnect(waitPacketTime): packet
  addTimeUpEvent()
  addTerminateEvent()
}
  
class RoomBot {
  isBot: true
  bot: Bot
  initBot()
  }
  
  class Bot {
  fakePlayerInfo: sPlayerInfo
    initFakeInfo()
    botState: int
initTower(): void
initMonster(): void
initSpell(): void
findOptimalPath(): void
action(): Action
  }

Interface Action {
+Energy: int
}

class Attack {
spell(): sSpell
createCreature(): sCreature
}

class Defense {
buildTower(): sTower
}
  
  class sPlayerInfo{
    id: int
    pw: char[60]
    name: char[15]
    Ava: img
    credit: int
    login_time: time
    logout_time: time
    ==
    void getter()
    void setter()
}
  
class sMap {
mapData: int [][]
creatureList: sCreature []
towerList: sTower []
getCreatureList()
getTowerList()
}
  
class sTower {
id: int
towerClass: int
position: Point
  evolutedLevel: int
  startBuildTime: Time
  Energy: int
}
  
class sCreature {
id: int
  type: int
  path: int [][]
  findPath()
  }
  
class sMonster {
  attribute: sMonsterAtrribute
  checkValidAttribute(): bool
  }
  
class sBoss {
  attribute: sBossAttribute
  checkValidAttribute(): bool
  }

  class sMinion {
  attribute: sMinionAttribute
  checkValidAttribute(): bool
  }
  
  class sSpell {
    startTime: int
    attribute: sSpellAttribute
    checkValidAttribute(): bool
  }

  class sMonsterAtrribute {
  consumingEnergy: int  
  isFlyer: bool
}
  class sBossAttribute {
  }
  class sMinionAttribute {
  }
  class sSpellAttribute {
    type: int 
    effectType: int
  }
  
  class sReward {
  currency: List<Currency>  
  }
  
class sGamePlayManager { 
  mapList: HashMap<UserID, sMap>
  
  onUpdateTowerEvent(UserID, sTower)
  onSpawnMonsterEvent(UserID, sMonster)
  onCastSpellEvent(UserID, sSpell)
  updateMonsterPath()
generateMap() 
  updateMap()
addMapData()
  handleEventMsg()
  unpackEventData(packet)
  packEventData(cmdID): packet
  isEventValid(cmdID): bool
  checkWin(): UserID
} 

Extension - BattleRequestHandler
o_AcceptBattle -- BattleRequestHandler
o_OfferBattle -- BattleRequestHandler
RequestBattle -- BattleRequestHandler
Extension -- RoomsHandler
RoomsHandler -- Room
Room -- sGamePlayManager
  Room -- sPlayerInfo
sGamePlayManager - sMap
  sMap - sCreature
  sMap - sTower
  sReward - Room
  sBoss -- sBossAttribute
  sMinion -- sMinionAttribute
  sSpell -- sSpellAttribute
  sMonster -- sMonsterAtrribute

}


@enduml 